<?xml version="1.0" encoding="UTF-8"?>
<svg xmlns="http://www.w3.org/2000/svg" width="1600" height="900" viewBox="0 0 1600 900">
  <defs>
    <linearGradient id="tealGlow" x1="0" y1="0" x2="1" y2="1">
      <stop offset="0" stop-color="#00C2FF" stop-opacity="0.85"/>
      <stop offset="1" stop-color="#00E5A0" stop-opacity="0.45"/>
    </linearGradient>
    <filter id="softGlow" x="-20%" y="-20%" width="140%" height="140%">
      <feGaussianBlur stdDeviation="10" result="blur"/>
      <feMerge>
        <feMergeNode in="blur"/>
        <feMergeNode in="SourceGraphic"/>
      </feMerge>
    </filter>
    <style>
      .bg { fill: #060D1A; }
      .card { fill: #0D1F35; stroke: #1A3354; stroke-width: 2; }
      .card2 { fill: #112844; stroke: #1A3354; stroke-width: 2; }
      .title { font: 800 44px sans-serif; fill: #E8F0FE; letter-spacing: -0.02em; }
      .boxText { font: 700 28px sans-serif; fill: #E8F0FE; }
      .boxTextFaded { font: 700 28px sans-serif; fill: #E8F0FE; opacity: 0.55; }
      .midText { font: 700 28px sans-serif; fill: #E8F0FE; }
      .midKey { font: 900 28px sans-serif; fill: #00C2FF; }
      .note { font: 600 18px sans-serif; fill: rgba(232,240,254,0.65); }
      .bottomIcon { font: 800 46px sans-serif; fill: #00C2FF; }
      .bottomValue { font: 900 34px sans-serif; fill: #00C2FF; letter-spacing: -0.03em; }
      .bottomLabel { font: 800 26px sans-serif; fill: #E8F0FE; opacity: 0.92; }
    </style>
  </defs>

  <rect class="bg" x="0" y="0" width="1600" height="900"/>

  <!-- Title -->
  <text x="80" y="110" class="title">&#x56F3;&#x89E3;&#x30C7;&#x30B6;&#x30A4;&#x30F3;&#x306E;&#x30E1;&#x30EA;&#x30C3;&#x30C8;</text>
  <path d="M80 130 H520" stroke="url(#tealGlow)" stroke-width="6" opacity="0.8" filter="url(#softGlow)"/>

  <!-- Comparison (Upper) -->
  <g transform="translate(80,170)">
    <!-- Left dashed route -->
    <rect class="card2" x="0" y="0" width="600" height="92" rx="10"/>
    <text x="30" y="60" class="boxText">&#x60C5;&#x5831;&#x3092;&#x53D7;&#x3051;&#x53D6;&#x308B;</text>

    <rect class="card2" x="0" y="125" width="600" height="92" rx="10"/>
    <text x="30" y="185" class="boxText">&#x8AAD;&#x3080;&#xFF08;&#x9045;&#x3044;&#xFF09;</text>

    <rect class="card2" x="0" y="250" width="600" height="92" rx="10"/>
    <text x="30" y="310" class="boxText">&#x7406;&#x89E3;&#xFF08;&#x3042;&#x3044;&#x307E;&#x3044;&#xFF09;</text>

    <rect x="0" y="375" width="600" height="92" rx="10" fill="#112844" stroke="#1A3354" stroke-width="2" opacity="0.35"/>
    <text x="30" y="435" class="boxTextFaded">&#x6B62;&#x307E;&#x308B;</text>

    <!-- dotted arrows -->
    <line x1="300" y1="92" x2="300" y2="125" stroke="#7A93B4" stroke-width="8" stroke-dasharray="18 14" opacity="0.85"/>
    <line x1="300" y1="217" x2="300" y2="250" stroke="#7A93B4" stroke-width="8" stroke-dasharray="18 14" opacity="0.85"/>
    <line x1="300" y1="342" x2="300" y2="375" stroke="#7A93B4" stroke-width="8" stroke-dasharray="18 14" opacity="0.65"/>

    <!-- arrowheads -->
    <path d="M300 114 L278 102 L322 102 Z" fill="#7A93B4" opacity="0.85"/>
    <path d="M300 239 L278 227 L322 227 Z" fill="#7A93B4" opacity="0.85"/>
    <path d="M300 364 L278 352 L322 352 Z" fill="#7A93B4" opacity="0.65"/>
  </g>

  <g transform="translate(920,170)">
    <!-- Right solid route -->
    <rect class="card2" x="0" y="0" width="600" height="92" rx="10"/>
    <text x="30" y="60" class="boxText">&#x60C5;&#x5831;&#x3092;&#x53D7;&#x3051;&#x53D6;&#x308B;</text>

    <rect class="card2" x="0" y="125" width="600" height="92" rx="10"/>
    <text x="30" y="185" class="boxText">&#x898B;&#x308B;&#xFF08;&#x77AC;&#x6642;&#xFF09;</text>

    <rect class="card2" x="0" y="250" width="600" height="92" rx="10"/>
    <text x="30" y="310" class="boxText">&#x7406;&#x89E3;&#xFF08;&#x660E;&#x78BA;&#xFF09;</text>

    <rect class="card2" x="0" y="375" width="600" height="92" rx="10"/>
    <text x="30" y="435" class="boxText">&#x52D5;&#x304F;</text>

    <!-- solid arrows -->
    <line x1="300" y1="92" x2="300" y2="125" stroke="#00C2FF" stroke-width="10" opacity="0.95"/>
    <line x1="300" y1="217" x2="300" y2="250" stroke="#00C2FF" stroke-width="10" opacity="0.95"/>
    <line x1="300" y1="342" x2="300" y2="375" stroke="#00C2FF" stroke-width="10" opacity="0.95"/>

    <path d="M300 114 L278 102 L322 102 Z" fill="#00C2FF" opacity="0.95" filter="url(#softGlow)"/>
    <path d="M300 239 L278 227 L322 227 Z" fill="#00C2FF" opacity="0.95" filter="url(#softGlow)"/>
    <path d="M300 364 L278 352 L322 352 Z" fill="#00C2FF" opacity="0.95" filter="url(#softGlow)"/>
  </g>

  <!-- Middle (Insight) -->
  <g transform="translate(170,520)">
    <rect x="0" y="0" width="1260" height="160" rx="18" fill="#112844" opacity="0.9" stroke="#1A3354" stroke-width="2"/>
    <text x="50" y="70" class="midText">&#x56F3;&#x89E3;&#x306F;&#x300E;&#x8AAD;&#x3080;&#x20;&#x2192;&#x20;&#x7406;&#x89E3;&#x3059;&#x308B;&#x300F;&#x306E;</text>
    <text x="50" y="118" class="midKey">&#x6469;&#x64E6;&#x3092;&#x306A;&#x304F;&#x3057;&#x3001;&#x7406;&#x89E3;&#x3092;&#x884C;&#x52D5;&#x306B;&#x3064;&#x306A;&#x3052;&#x308B;</text>
  </g>

  <!-- Bottom (List cards) -->
  <g transform="translate(120,700)">
    <rect x="0" y="0" width="1360" height="120" rx="18" fill="rgba(13,31,53,0.35)" stroke="#1A3354" stroke-width="2" opacity="0.5"/>

    
    <g transform="translate(40,18)">
      <rect x="0" y="0" width="420" height="84" rx="14" fill="#0D1F35"/>
      <text x="40" y="33" class="bottomIcon">&#x23F1;</text>
      <text x="150" y="42" class="bottomValue">&#x36;&#x30;&#x25;&#x77ED;&#x7E2E;</text>
      <text x="150" y="72" class="bottomLabel">&#x8AAC;&#x660E;&#x6642;&#x9593;</text>
    </g>
    <g transform="translate(470,18)">
      <rect x="0" y="0" width="420" height="84" rx="14" fill="#0D1F35"/>
      <text x="40" y="33" class="bottomIcon">&#x1F9E0;</text>
      <text x="150" y="42" class="bottomValue">&#x32;&#x500D;</text>
      <text x="150" y="72" class="bottomLabel">&#x8A18;&#x61B6;&#x5B9A;&#x7740;&#x7387;</text>
    </g>
    <g transform="translate(900,18)">
      <rect x="0" y="0" width="420" height="84" rx="14" fill="#0D1F35"/>
      <text x="40" y="33" class="bottomIcon">&#x2705;</text>
      <text x="150" y="42" class="bottomValue">&#x30B9;&#x30D4;&#x30FC;&#x30C9;&#x304C;&#x4E0A;&#x304C;&#x308B;</text>
      <text x="150" y="72" class="bottomLabel">&#x610F;&#x601D;&#x6C7A;&#x5B9A;</text>
    </g>

    <text x="40" y="115" class="note">&#x203B;&#x5B9F;&#x6570;&#x5024;&#x304C;&#x63C3;&#x3044;&#x6B21;&#x7B2C;&#x3001;&#x30C7;&#x30FC;&#x30BF;&#x53EF;&#x8996;&#x5316;&#x578B;&#xFF08;&#x68D2;&#x30B0;&#x30E9;&#x30D5;&#xFF09;&#x3092;&#x4E0B;&#x90E8;&#x306B;&#x8FFD;&#x52A0;&#x4E88;&#x5B9A;&#x3002;</text>
  </g>
</svg>
